<svg width="120" height="120" viewBox="0 0 120 120" fill="none" xmlns="http://www.w3.org/2000/svg">
<path d="M15.3772 108.929C9.15594 107.444 7.18144 103.726 7.90675 98.8879C9.68289 87.0414 14.9648 73.7912 34.8069 70.0845C48.9935 71.2158 53.8023 71.2135 56.3637 71.1713C58.8814 71.2178 66.0725 68.5031 80.3636 67.3634C94.7032 66.2198 101.81 84.9139 104.529 98.9275C105.46 103.73 102.182 108.199 97.3671 109.062C63.1618 115.188 30.3045 111.365 15.3772 108.929Z" fill="#811AC7"/>
<path d="M23.0983 28.1607C23.349 27.3981 24.0973 26.9181 24.8999 26.931C28.2794 26.9852 34.8678 26.2247 39.9107 21.837C40.3771 21.4311 40.8899 20.9727 41.4466 20.4749C49.8334 12.9763 68.2015 -3.4465 88.7605 16.4834C93.5415 21.1181 94.9515 27.3804 90.7644 29.0394C114.805 52.178 62.0845 82.3403 53.091 64.091C50.0909 55.9092 50.0909 55.9092 50.0909 55.9092C50.0909 55.9092 43.5454 58.4481 40.5128 58.8055C32.1286 59.7935 25.4717 57.6347 25.8062 48.6229C25.8755 46.7576 26.0774 45.009 26.3972 43.3698C20.7803 41.9363 17.1897 39.0485 18.4006 35.2625C21.7666 36.4752 26.519 35.6708 27.8185 35.1359C23.2812 33.5045 22.6341 30.4376 23.0983 28.1607Z" fill="#231F20"/>
<path d="M96.7112 77.3131C100.674 83.6146 103.159 91.8654 104.529 98.9275C105.461 103.73 102.182 108.199 97.3673 109.062C97.2917 109.075 97.2162 109.089 97.1406 109.102C93.9265 100.938 92.793 90.2784 92.637 85.3634L96.4551 77.1816L96.7112 77.3131Z" fill="#231F20"/>
<path d="M64.818 58.3638C64.818 58.3638 42.4544 52.091 44.0908 55.9092C45.7271 59.7273 41.6362 70.6364 35.0908 70.091C31.501 69.7918 39.9998 80.8443 55.5453 81.8183C55.7394 81.8304 55.9422 81.8307 56.1526 81.8198C56.3134 81.8248 56.4747 81.8273 56.6366 81.8273C66.1507 81.8273 73.8868 73.0217 74.0872 68.0077C71.0866 68.3872 68.4991 68.8213 66.2875 69.2438C63.4856 66.0256 64.818 58.3638 64.818 58.3638Z" fill="#FFA9A8"/>
<path d="M64.5817 64.2842C64.3003 63.4159 64.5817 64.091 64.5817 64.2842C60.9846 65.6174 56.1623 64.9412 52.524 64.4311C51.5136 64.2894 50.5944 64.1606 49.8183 64.0911C47.5694 63.8899 47.3247 65.182 48.7273 67.6365C49.7263 69.3848 51.3776 71.5055 54.7086 71.8232L54.7021 71.8414C54.8456 71.8488 55.0052 71.8536 55.1797 71.8555C55.6388 71.8748 56.1278 71.8612 56.6491 71.8096C59.1339 71.6444 62.8895 70.9985 66.3121 69.233L64.5817 64.2842Z" fill="#F97F81"/>
<path d="M48.9269 34.2984C49.1142 33.8885 49.5609 33.674 50.007 33.7375C57.94 34.8665 70.1016 34.1521 80.4016 28.6665C80.3392 29.7483 80.7314 30.4505 81.2087 31.3049C82.0893 32.8815 83.2596 34.9765 82.3982 40.9314C81.3454 48.2098 78.6094 55.2981 74.1037 61.1104C69.3201 67.2811 62.6204 71.5974 53.185 67.2484C42.3873 62.2716 42.5446 52.6477 45.0987 44.0727C40.7704 45.6171 39.3326 36.109 43.5826 33.3227C46.5952 31.3476 47.7395 34.091 48.0261 36.305C48.3321 35.6083 48.6348 34.9378 48.9269 34.2984Z" fill="#FFA9A8"/>
<path d="M69.7933 54.1769C67.7114 58.6937 62.0316 60.5152 57.1071 58.2454C52.1826 55.9756 49.8782 50.474 51.96 45.9573C54.0419 41.4405 56.8945 45.7527 61.819 48.0225C66.7435 50.2923 71.8751 49.6601 69.7933 54.1769Z" fill="white"/>
<path d="M64.7891 45.5562C67.462 44.7491 66.9873 40.5085 66.2111 37.8608C66.1517 37.6582 66.2979 37.4524 66.5089 37.4457C66.6247 37.442 66.7361 37.5063 66.7943 37.6066C71.4712 45.6645 67.3777 46.8436 64.6963 46.4185C64.674 46.415 64.6527 46.4084 64.6322 46.3989C64.3661 46.2763 64.5087 45.6409 64.7891 45.5562Z" fill="#F97F81"/>
<path fill-rule="evenodd" clip-rule="evenodd" d="M73.8349 32.6986C75.7486 31.9909 80.3493 35.9822 80.8249 39.1222C81.317 42.3716 79.5435 40.9496 79.5435 40.9496C79.3806 40.1758 76.9358 37.7587 74.3541 36.3618C73.2138 35.7448 72.6168 33.8934 73.5006 32.9447C73.5962 32.8421 73.7034 32.7472 73.8349 32.6986ZM72.3968 41.1562C72.6006 39.5803 73.2755 39.0804 74.6105 39.924C75.4326 40.4471 75.6525 41.2993 75.0558 42.5679C74.459 43.8365 72.0993 43.3916 72.3968 41.1562ZM58.5262 34.763C58.73 33.1871 59.4048 32.6873 60.7399 33.5309C61.562 34.054 61.7819 34.9061 61.1851 36.1748C60.5884 37.4434 58.2286 36.9985 58.5262 34.763Z" fill="#231F20"/>
<path d="M44.2933 44.1606C43.7889 45.255 42.4927 45.7333 41.3983 45.2289C40.3039 44.7244 39.8256 43.4283 40.33 42.3339C40.8345 41.2395 42.1306 40.7612 43.225 41.2656C44.3195 41.7701 44.7977 43.0662 44.2933 44.1606Z" fill="white"/>
<path d="M95.4774 54.8149C97.3547 50.6533 99.0436 47.0886 100.392 47.4847C101.967 47.9477 100.56 51.4929 98.7753 55.9919C97.6776 58.7585 96.4368 61.8858 95.6583 64.8788C95.6603 64.8796 95.6623 64.8805 95.6643 64.8813C95.7325 64.9095 95.8167 64.9199 95.8977 64.9109C99.2771 58.7908 106.515 47.2832 108.765 48.4084C110.194 49.1227 109.078 50.9598 106.946 54.4686C105.209 57.3289 102.796 61.3001 100.537 66.6794C101.53 67.1693 102.593 68.0903 103.64 69.696C104.49 70.9988 104.621 72.647 104.068 74.1008C101.936 79.7017 98.3495 82.2649 95.9648 83.9695C94.8804 84.7446 106.417 103.364 105.455 105.273C101.909 109.364 92.2365 110.455 88.5454 110.455C88 109.909 83.5005 94.6657 82.2727 87.5455C81.0449 80.4253 81.0913 76.7731 81.2176 67.732C81.3439 58.6909 81.692 56.6485 83.0562 56.2526C84.4203 55.8566 84.9888 58.6305 85.5073 61.6121C85.7394 62.991 86.0336 64.7382 86.6657 65.7842C87.6794 67.4616 89.1544 66.3257 90.4954 64.5015L90.4927 64.4992C91.3611 63.3208 92.2187 61.7609 93.0547 60.0624C93.435 59.218 94.4323 57.0165 95.4774 54.8149Z" fill="#FFA9A8"/>
<path d="M100.963 65.685C100.821 66.011 100.679 66.3424 100.537 66.6794C100.563 66.6924 100.59 66.7057 100.616 66.7193C98.8891 66.1256 97.306 65.9638 96.0132 66.0115C94.3119 66.0742 92.9867 67.4158 92.2924 69.1861L92.2026 69.4149C93.4289 68.4513 94.9679 67.969 96.6091 68.4719C98.3089 68.9928 100.28 69.9787 102.164 71.7252C102.384 71.93 102.398 72.2751 102.193 72.4961C101.988 72.717 101.643 72.73 101.422 72.5252C99.6686 70.8998 97.8458 69.9919 96.2895 69.515C94.3735 68.9279 92.4639 70.1282 91.3432 72.071L90.8383 72.9463C90.6682 73.2413 90.6732 73.547 90.763 73.7424C90.8402 73.9103 90.9811 74.0181 91.2344 73.9905C92.0007 73.9069 92.8859 73.5932 93.7067 72.8229C94.305 72.2614 95.3027 72.0592 96.0465 72.6438L98.9971 74.9629C99.234 75.149 99.2751 75.4919 99.0889 75.7288C98.9028 75.9656 98.5598 76.0067 98.323 75.8206L95.3723 73.5014C95.1474 73.3246 94.7534 73.3366 94.4532 73.6183C93.4427 74.5667 92.3297 74.9684 91.3527 75.075C90.6081 75.1562 90.0344 74.7694 89.7718 74.1979C89.5556 73.7275 89.5564 73.1565 89.7751 72.639L89.7673 72.636L91.2768 68.7877C92.0506 66.815 93.6563 65.0067 95.973 64.9213C97.3876 64.8691 99.1031 65.0467 100.963 65.685Z" fill="#231F20"/>
</svg>
