<svg width="120" height="120" viewBox="0 0 120 120" fill="none" xmlns="http://www.w3.org/2000/svg">
<path d="M82.0001 75.0032C87.523 75.0032 92.0001 70.526 92.0001 65.0032C92.0001 62.5472 91.1148 60.298 89.6458 58.5574C89.4179 58.2873 89.1694 58.0239 88.9206 57.7602C88.0439 56.8307 87.1631 55.8971 87.1631 54.6516C87.1631 52.9899 88.1975 51.5698 89.6574 51C100.783 51.0094 106.527 51.1949 110.166 54.8337C114 58.668 114 64.8391 114 77.1813V87.8213C114 100.164 114 106.335 110.166 110.169C106.332 114.003 100.161 114.003 87.8183 114.003H77.1819C64.8397 114.003 58.6686 114.003 54.8344 110.169C51.3289 106.663 51.0283 101.205 51.0025 90.8627C50.889 88.8004 49.1808 87.163 47.0901 87.163C45.8446 87.163 44.911 88.0437 43.9815 88.9204C43.7178 89.1692 43.4544 89.4177 43.1843 89.6456C41.4437 91.1146 39.1945 92 36.7385 92C31.2157 92 26.7385 87.5228 26.7385 82C26.7385 76.4771 31.2157 72 36.7385 72C39.1399 72 41.3436 72.8464 43.0675 74.2573C43.3671 74.5024 43.6575 74.7733 43.948 75.0443C44.8907 75.9237 45.8341 76.8038 47.0901 76.8038C49.2136 76.8038 50.9427 75.1145 51.0067 73.0065C51.0551 63.3947 51.4592 58.2088 54.8344 54.8337C58.3593 51.3088 63.8593 51.0244 74.3135 51.0015C75.7714 51.5723 76.8039 52.9914 76.8039 54.6516C76.8039 55.9076 75.9239 56.8509 75.0445 57.7937C74.7735 58.0842 74.5025 58.3746 74.2574 58.6741C72.8466 60.3981 72.0001 62.6018 72.0001 65.0032C72.0001 70.526 76.4773 75.0032 82.0001 75.0032Z" fill="#AB47E9"/>
<path fill-rule="evenodd" clip-rule="evenodd" d="M72.0496 64C72.0167 64.3299 71.9999 64.6646 71.9999 65.0032C71.9999 70.5135 76.4567 74.9828 81.9623 75.0031L86.4532 90.7213C87.0007 92.6377 85.5617 94.5455 83.5686 94.5455H81.0814C79.742 94.5455 78.5648 93.6575 78.1968 92.3696L76.7925 87.4545L67.7535 87.4545L66.3492 92.3696C65.9812 93.6575 64.804 94.5455 63.4646 94.5455H60.9774C58.9843 94.5455 57.5453 92.6377 58.0928 90.7213L65.1058 66.1758C65.4738 64.8879 66.651 64 67.9904 64L72.0496 64ZM75.5458 83.0908H69.0002L72.273 71.6362L75.5458 83.0908Z" fill="#811AC7"/>
<path d="M96.2666 51.067C94.3018 51.0127 92.1105 51.0021 89.6575 51C88.1976 51.5698 87.1633 52.9899 87.1633 54.6516C87.1633 55.8971 88.044 56.8307 88.9207 57.7602C89.058 57.9056 89.1952 58.0511 89.3288 58.1975C92.7477 57.2611 95.4217 54.5228 96.2666 51.067Z" fill="#231F20"/>
<path d="M72.0796 63.7371C71.5342 65.1119 70.7979 66.2628 69.804 67.2568C66.3584 70.7024 61.0255 71.0516 51.0227 71.087C51.1248 62.6906 51.6913 57.9769 54.8345 54.8337C58.3594 51.3088 63.8594 51.0244 74.3137 51.0015C75.7716 51.5723 76.8041 52.9914 76.8041 54.6516C76.8041 55.9076 75.924 56.8509 75.0446 57.7937C74.7736 58.0842 74.5027 58.3746 74.2575 58.6741C73.0987 60.0902 72.3206 61.8299 72.0796 63.7371Z" fill="#231F20"/>
<path d="M38 45C32.4771 45 28 49.4772 28 55C28 57.456 28.8854 59.7052 30.3543 61.4458C30.5823 61.7159 30.8307 61.9793 31.0795 62.243C31.9563 63.1725 32.837 64.1061 32.837 65.3515C32.837 67.0132 31.8027 68.4333 30.3427 69.0032C19.2168 68.9937 13.4731 68.8083 9.83424 65.1694C6 61.3352 6 55.1641 6 42.8219L6 32.1819C6 19.8396 6 13.6685 9.83424 9.8343C13.6685 6.00006 19.8396 6.00006 32.1818 6.00006L42.8182 6.00006C55.1604 6.00006 61.3315 6.00006 65.1658 9.8343C68.6621 13.3306 68.9702 18.77 68.9974 29.0598C69.0717 31.1585 70.7965 32.837 72.9134 32.837C74.1588 32.837 75.0924 31.9563 76.0219 31.0796C76.2856 30.8308 76.549 30.5823 76.8191 30.3544C78.5597 28.8854 80.8089 28 83.2649 28C88.7877 28 93.2649 32.4772 93.2649 38C93.2649 43.5229 88.7877 48 83.2649 48C80.8635 48 78.6598 47.1536 76.9359 45.7428C76.6364 45.4976 76.3459 45.2267 76.0554 44.9557C75.1127 44.0763 74.1693 43.1962 72.9134 43.1962C70.7876 43.1962 69.0572 44.889 68.9965 47H68.9934C68.9449 56.6097 68.5405 61.7947 65.1658 65.1694C61.6408 68.6944 56.1408 68.9787 45.6866 69.0017C44.2287 68.4308 43.1962 67.0118 43.1962 65.3515C43.1962 64.0956 44.0762 63.1522 44.9557 62.2095C45.2266 61.919 45.4976 61.6285 45.7427 61.329C47.1535 59.6051 48 57.4014 48 55C48 49.4772 43.5228 45 38 45Z" fill="#0077FF"/>
<path d="M28.8102 51.0505C28.3077 50.5141 28 49.793 28 49L28 25C28 23.3432 29.3431 22 31 22L34.7209 22C36.3251 22 37.8624 22.6424 38.9897 23.7837L45.0001 29.869L51.0105 23.7837C52.1378 22.6424 53.6752 22 55.2794 22H59.0001C60.657 22 62.0001 23.3431 62.0001 25L62.0001 49C62.0001 50.6569 60.657 52 59.0001 52L56.0001 52C54.3433 52 53.0001 50.6569 53.0001 49L53.0001 33.9002L44.9981 42L37 33.9022L37 45.0493C33.3136 45.4153 30.2162 47.7832 28.8102 51.0505Z" fill="#2929B2"/>
<path fill-rule="evenodd" clip-rule="evenodd" d="M57.6875 54.818C57.2677 54.818 56.881 54.8831 56.5314 55.0186C56.1871 55.1434 55.8855 55.3226 55.6305 55.558L55.6266 55.5616C55.3809 55.7975 55.19 56.0772 55.0539 56.398L55.0512 56.4046C54.924 56.7274 54.862 57.0759 54.862 57.4471C54.862 57.7825 54.9314 58.1044 55.0695 58.4102L55.0709 58.4133C55.1991 58.6881 55.3424 58.9382 55.5013 59.1625L55.5047 59.1672C55.619 59.3215 55.7419 59.4702 55.8736 59.6134C55.6452 59.7607 55.4361 59.9286 55.2468 60.1173C54.9975 60.3483 54.7774 60.6364 54.5842 60.9765C54.3732 61.3389 54.2729 61.7585 54.2729 62.2253C54.2729 62.6172 54.3448 62.9891 54.4903 63.3382L54.494 63.3467C54.648 63.6835 54.86 63.9821 55.1287 64.2412L55.136 64.248C55.4167 64.4996 55.7478 64.6953 56.1256 64.837L56.1276 64.8378C56.52 64.9813 56.9539 65.0507 57.4257 65.0507C57.8704 65.0507 58.2646 65.0012 58.6027 64.8956C58.9275 64.805 59.2065 64.6935 59.433 64.5567C59.5966 64.4686 59.7451 64.3699 59.8772 64.2601C59.9569 64.3437 60.0432 64.4217 60.136 64.4941C60.298 64.6253 60.4898 64.7371 60.7075 64.8317L60.7113 64.8334C60.9607 64.9373 61.2421 64.9853 61.5493 64.9853C61.6835 64.9853 61.8107 64.9717 61.9262 64.939C62.0205 64.9217 62.1048 64.9039 62.1784 64.8855C62.1937 64.8817 62.2086 64.8765 62.223 64.8701C62.3049 64.8337 62.3829 64.797 62.4567 64.7601C62.5491 64.7139 62.6075 64.6195 62.6075 64.5162V63.0107C62.6075 62.9231 62.5654 62.8407 62.4942 62.7895C62.4231 62.7382 62.3317 62.7243 62.2485 62.752C62.2306 62.758 62.207 62.7648 62.177 62.7723C62.1583 62.777 62.1401 62.7836 62.1228 62.7921C62.1228 62.7921 62.1147 62.7949 62.1001 62.7973C62.0794 62.8008 62.0492 62.8034 62.0075 62.8034C61.8854 62.8034 61.7888 62.7855 61.7127 62.7562C61.6138 62.7181 61.534 62.6819 61.4714 62.6481L61.4552 62.6364C61.5823 62.4399 61.6961 62.2273 61.797 61.9992C61.9274 61.7282 62.0368 61.4162 62.1269 61.0656C62.23 60.6985 62.2802 60.299 62.2802 59.8689C62.2802 59.7183 62.1581 59.5962 62.0075 59.5962H60.3711C60.2988 59.5962 60.2294 59.6249 60.1783 59.6761C60.1271 59.7272 60.0984 59.7966 60.0984 59.8689C60.0984 60.0785 60.0782 60.2674 60.0397 60.4368L60.0378 60.4462C60.0053 60.6168 59.966 60.7558 59.922 60.866L59.9166 60.8791L58.9436 59.7292C59.1541 59.5767 59.3465 59.407 59.5203 59.2203C59.7399 59 59.9321 58.7359 60.0985 58.4313C60.2895 58.0984 60.382 57.7243 60.382 57.3162C60.382 56.9669 60.3141 56.6371 60.1761 56.3302C60.0477 56.0253 59.8601 55.7591 59.6153 55.5333C59.3776 55.3061 59.0933 55.131 58.7667 55.0062C58.4352 54.8794 58.0744 54.818 57.6875 54.818ZM57.3174 57.077C57.4102 56.9842 57.5264 56.9344 57.6875 56.9344C57.8118 56.9344 57.9105 56.9766 57.9994 57.0711C58.0859 57.163 58.1348 57.2811 58.1348 57.4471C58.1348 57.5624 58.1051 57.672 58.0415 57.7801L58.0356 57.7908C57.965 57.924 57.8884 58.0382 57.8066 58.1349L57.8031 58.1391C57.7509 58.2033 57.6944 58.2646 57.6333 58.3229C57.5817 58.2673 57.5328 58.2089 57.4868 58.1474C57.4836 58.1432 57.4802 58.139 57.4768 58.1349C57.3962 58.0396 57.3206 57.9274 57.2509 57.7967C57.2001 57.6867 57.1748 57.5711 57.1748 57.4471C57.1748 57.286 57.2246 57.1698 57.3174 57.077ZM57.0209 61.2728C57.0732 61.2093 57.129 61.1507 57.1884 61.0967L58.4775 62.6437C58.4444 62.6664 58.4101 62.6884 58.3744 62.7099C58.2708 62.7688 58.1489 62.8225 58.0071 62.8698C57.883 62.9112 57.734 62.9344 57.5566 62.9344C57.241 62.9344 57.0275 62.8492 56.8813 62.7091C56.7269 62.5611 56.6511 62.3841 56.6511 62.1598C56.6511 61.9684 56.6878 61.8106 56.7532 61.6796L56.7555 61.6749C56.8334 61.5114 56.9192 61.3831 57.0103 61.285C57.0139 61.2811 57.0175 61.277 57.0209 61.2728Z" fill="#2929B2"/>
</svg>
